<?xml version="1.0" encoding="UTF-8"?> <svg xmlns="http://www.w3.org/2000/svg" xmlns:xlink="http://www.w3.org/1999/xlink" width="500" zoomAndPan="magnify" viewBox="0 0 375 119.999999" height="160" preserveAspectRatio="xMidYMid meet" version="1.0"><defs><g></g><clipPath id="d0c0204268"><rect x="0" width="329" y="0" height="103"></rect></clipPath></defs><g transform="matrix(1, 0, 0, 1, 25, 5)"><g clip-path="url(#d0c0204268)"><g fill="#002e7c" fill-opacity="1"><g transform="translate(27.3001, 67.394197)"><g><path d="M 4.453125 0 L 4.453125 -35.53125 L 19.46875 -35.53125 C 21 -35.53125 22.398438 -35.210938 23.671875 -34.578125 C 24.941406 -33.941406 26.050781 -33.082031 27 -32 C 27.945312 -30.914062 28.679688 -29.710938 29.203125 -28.390625 C 29.722656 -27.078125 29.984375 -25.738281 29.984375 -24.375 C 29.984375 -22.675781 29.65625 -21.070312 29 -19.5625 C 28.351562 -18.0625 27.4375 -16.796875 26.25 -15.765625 C 25.0625 -14.734375 23.671875 -14.050781 22.078125 -13.71875 L 30.78125 0 L 26.828125 0 L 18.46875 -13.109375 L 7.953125 -13.109375 L 7.953125 0 Z M 7.953125 -16.21875 L 19.5625 -16.21875 C 20.96875 -16.21875 22.1875 -16.597656 23.21875 -17.359375 C 24.25 -18.128906 25.046875 -19.140625 25.609375 -20.390625 C 26.179688 -21.640625 26.46875 -22.96875 26.46875 -24.375 C 26.46875 -25.8125 26.140625 -27.132812 25.484375 -28.34375 C 24.835938 -29.5625 23.972656 -30.546875 22.890625 -31.296875 C 21.804688 -32.054688 20.597656 -32.4375 19.265625 -32.4375 L 7.953125 -32.4375 Z M 7.953125 -16.21875 "></path></g></g></g><g fill="#002e7c" fill-opacity="1"><g transform="translate(63.935595, 67.394197)"><g><path d="M 28.328125 -3.109375 L 28.328125 0 L 4.453125 0 L 4.453125 -35.53125 L 27.875 -35.53125 L 27.875 -32.4375 L 7.953125 -32.4375 L 7.953125 -19.625 L 25.328125 -19.625 L 25.328125 -16.671875 L 7.953125 -16.671875 L 7.953125 -3.109375 Z M 28.328125 -3.109375 "></path></g></g></g><g fill="#002e7c" fill-opacity="1"><g transform="translate(98.36898, 67.394197)"><g><path d="M 4.453125 0 L 4.453125 -35.53125 L 27.78125 -35.53125 L 27.78125 -32.4375 L 7.953125 -32.4375 L 7.953125 -19.375 L 24.671875 -19.375 L 24.671875 -16.46875 L 7.953125 -16.46875 L 7.953125 0 Z M 4.453125 0 "></path></g></g></g><g fill="#002e7c" fill-opacity="1"><g transform="translate(131.801404, 67.394197)"><g><path d="M 18.765625 0.25 C 16.265625 0.25 13.992188 -0.25 11.953125 -1.25 C 9.921875 -2.25 8.171875 -3.609375 6.703125 -5.328125 C 5.234375 -7.046875 4.097656 -8.976562 3.296875 -11.125 C 2.503906 -13.28125 2.109375 -15.492188 2.109375 -17.765625 C 2.109375 -20.128906 2.523438 -22.390625 3.359375 -24.546875 C 4.191406 -26.703125 5.363281 -28.617188 6.875 -30.296875 C 8.394531 -31.984375 10.171875 -33.316406 12.203125 -34.296875 C 14.242188 -35.285156 16.445312 -35.78125 18.8125 -35.78125 C 21.320312 -35.78125 23.59375 -35.265625 25.625 -34.234375 C 27.65625 -33.203125 29.394531 -31.816406 30.84375 -30.078125 C 32.300781 -28.335938 33.429688 -26.398438 34.234375 -24.265625 C 35.035156 -22.128906 35.4375 -19.945312 35.4375 -17.71875 C 35.4375 -15.34375 35.019531 -13.078125 34.1875 -10.921875 C 33.351562 -8.773438 32.179688 -6.859375 30.671875 -5.171875 C 29.171875 -3.492188 27.40625 -2.171875 25.375 -1.203125 C 23.34375 -0.234375 21.140625 0.25 18.765625 0.25 Z M 5.609375 -17.765625 C 5.609375 -15.828125 5.921875 -13.96875 6.546875 -12.1875 C 7.179688 -10.40625 8.082031 -8.820312 9.25 -7.4375 C 10.425781 -6.050781 11.820312 -4.945312 13.4375 -4.125 C 15.050781 -3.3125 16.828125 -2.90625 18.765625 -2.90625 C 20.804688 -2.90625 22.632812 -3.328125 24.25 -4.171875 C 25.863281 -5.023438 27.242188 -6.160156 28.390625 -7.578125 C 29.546875 -8.992188 30.425781 -10.585938 31.03125 -12.359375 C 31.632812 -14.128906 31.9375 -15.929688 31.9375 -17.765625 C 31.9375 -19.703125 31.617188 -21.550781 30.984375 -23.3125 C 30.347656 -25.082031 29.4375 -26.664062 28.25 -28.0625 C 27.0625 -29.46875 25.664062 -30.570312 24.0625 -31.375 C 22.46875 -32.175781 20.703125 -32.578125 18.765625 -32.578125 C 16.765625 -32.578125 14.953125 -32.160156 13.328125 -31.328125 C 11.710938 -30.492188 10.328125 -29.367188 9.171875 -27.953125 C 8.023438 -26.535156 7.144531 -24.941406 6.53125 -23.171875 C 5.914062 -21.398438 5.609375 -19.597656 5.609375 -17.765625 Z M 5.609375 -17.765625 "></path></g></g></g><g fill="#002e7c" fill-opacity="1"><g transform="translate(173.341604, 67.394197)"><g><path d="M 4.453125 0 L 4.453125 -35.53125 L 19.46875 -35.53125 C 21 -35.53125 22.398438 -35.210938 23.671875 -34.578125 C 24.941406 -33.941406 26.050781 -33.082031 27 -32 C 27.945312 -30.914062 28.679688 -29.710938 29.203125 -28.390625 C 29.722656 -27.078125 29.984375 -25.738281 29.984375 -24.375 C 29.984375 -22.675781 29.65625 -21.070312 29 -19.5625 C 28.351562 -18.0625 27.4375 -16.796875 26.25 -15.765625 C 25.0625 -14.734375 23.671875 -14.050781 22.078125 -13.71875 L 30.78125 0 L 26.828125 0 L 18.46875 -13.109375 L 7.953125 -13.109375 L 7.953125 0 Z M 7.953125 -16.21875 L 19.5625 -16.21875 C 20.96875 -16.21875 22.1875 -16.597656 23.21875 -17.359375 C 24.25 -18.128906 25.046875 -19.140625 25.609375 -20.390625 C 26.179688 -21.640625 26.46875 -22.96875 26.46875 -24.375 C 26.46875 -25.8125 26.140625 -27.132812 25.484375 -28.34375 C 24.835938 -29.5625 23.972656 -30.546875 22.890625 -31.296875 C 21.804688 -32.054688 20.597656 -32.4375 19.265625 -32.4375 L 7.953125 -32.4375 Z M 7.953125 -16.21875 "></path></g></g></g><g fill="#002e7c" fill-opacity="1"><g transform="translate(209.983728, 67.394197)"><g><path d="M 32.6875 0 L 32.6875 -23.328125 L 23.578125 -5.953125 L 19.71875 -5.953125 L 10.609375 -23.328125 L 10.609375 0 L 3.703125 0 L 3.703125 -35.53125 L 11.109375 -35.53125 L 21.625 -15.3125 L 32.234375 -35.53125 L 39.59375 -35.53125 L 39.59375 0 Z M 32.6875 0 "></path></g></g></g><g fill="#002e7c" fill-opacity="1"><g transform="translate(257.229395, 67.394197)"><g><path d="M 3.703125 0 L 3.703125 -35.53125 L 10.609375 -35.53125 L 10.609375 0 Z M 3.703125 0 "></path></g></g></g><g fill="#002e7c" fill-opacity="1"><g transform="translate(275.497278, 67.394197)"><g><path d="M 7.40625 -35.53125 L 16.21875 -22.421875 L 24.96875 -35.53125 L 32.484375 -35.53125 L 20.171875 -17.515625 L 32.078125 0 L 24.578125 0 L 16.21875 -12.609375 L 7.8125 0 L 0.25 0 L 12.15625 -17.515625 L -0.15625 -35.53125 Z M 7.40625 -35.53125 "></path></g></g></g><g fill="#002e7c" fill-opacity="1"><g transform="translate(311.782987, 67.394197)"><g></g></g></g><g fill="#002e7c" fill-opacity="1"><g transform="translate(140.586707, 95.925368)"><g><path d="M 15.765625 -4.578125 C 15.765625 -3.660156 15.53125 -2.859375 15.0625 -2.171875 C 14.601562 -1.492188 13.972656 -0.960938 13.171875 -0.578125 C 12.378906 -0.191406 11.507812 0 10.5625 0 L 2.125 0 L 2.125 -17.765625 L 10.96875 -17.765625 C 11.800781 -17.765625 12.519531 -17.546875 13.125 -17.109375 C 13.738281 -16.671875 14.207031 -16.101562 14.53125 -15.40625 C 14.851562 -14.71875 15.015625 -13.992188 15.015625 -13.234375 C 15.015625 -12.367188 14.789062 -11.554688 14.34375 -10.796875 C 13.90625 -10.035156 13.28125 -9.472656 12.46875 -9.109375 C 13.488281 -8.804688 14.289062 -8.25 14.875 -7.4375 C 15.46875 -6.632812 15.765625 -5.679688 15.765625 -4.578125 Z M 13.484375 -4.984375 C 13.484375 -5.535156 13.363281 -6.039062 13.125 -6.5 C 12.882812 -6.96875 12.5625 -7.34375 12.15625 -7.625 C 11.75 -7.914062 11.273438 -8.0625 10.734375 -8.0625 L 4.375 -8.0625 L 4.375 -1.953125 L 10.5625 -1.953125 C 11.113281 -1.953125 11.609375 -2.09375 12.046875 -2.375 C 12.492188 -2.65625 12.84375 -3.023438 13.09375 -3.484375 C 13.351562 -3.953125 13.484375 -4.453125 13.484375 -4.984375 Z M 4.375 -15.8125 L 4.375 -9.890625 L 10.03125 -9.890625 C 10.570312 -9.890625 11.046875 -10.019531 11.453125 -10.28125 C 11.859375 -10.550781 12.179688 -10.910156 12.421875 -11.359375 C 12.671875 -11.816406 12.796875 -12.3125 12.796875 -12.84375 C 12.796875 -13.40625 12.679688 -13.90625 12.453125 -14.34375 C 12.222656 -14.789062 11.910156 -15.144531 11.515625 -15.40625 C 11.128906 -15.675781 10.6875 -15.8125 10.1875 -15.8125 Z M 4.375 -15.8125 "></path></g></g></g><g fill="#002e7c" fill-opacity="1"><g transform="translate(159.354879, 95.925368)"><g><path d="M 7.53125 -17.765625 L 9.4375 -17.765625 L 16.703125 0 L 14.296875 0 L 12.1875 -5.203125 L 4.734375 -5.203125 L 2.65625 0 L 0.25 0 Z M 11.6875 -6.953125 L 8.484375 -15.171875 L 5.1875 -6.953125 Z M 11.6875 -6.953125 "></path></g></g></g><g fill="#002e7c" fill-opacity="1"><g transform="translate(178.2732, 95.925368)"><g><path d="M 2.125 0 L 2.125 -17.765625 L 9.734375 -17.765625 C 10.515625 -17.765625 11.226562 -17.601562 11.875 -17.28125 C 12.53125 -16.957031 13.097656 -16.523438 13.578125 -15.984375 C 14.066406 -15.441406 14.445312 -14.832031 14.71875 -14.15625 C 14.988281 -13.476562 15.125 -12.789062 15.125 -12.09375 C 15.125 -11.269531 14.96875 -10.488281 14.65625 -9.75 C 14.34375 -9.019531 13.90625 -8.394531 13.34375 -7.875 C 12.789062 -7.363281 12.140625 -7.007812 11.390625 -6.8125 L 15.6875 0 L 13.140625 0 L 9.09375 -6.390625 L 4.375 -6.390625 L 4.375 0 Z M 4.375 -8.390625 L 9.765625 -8.390625 C 10.378906 -8.390625 10.914062 -8.554688 11.375 -8.890625 C 11.832031 -9.234375 12.191406 -9.6875 12.453125 -10.25 C 12.710938 -10.820312 12.84375 -11.4375 12.84375 -12.09375 C 12.84375 -12.757812 12.691406 -13.367188 12.390625 -13.921875 C 12.085938 -14.484375 11.691406 -14.929688 11.203125 -15.265625 C 10.722656 -15.597656 10.191406 -15.765625 9.609375 -15.765625 L 4.375 -15.765625 Z M 4.375 -8.390625 "></path></g></g></g><g fill="#002e7c" fill-opacity="1"><g transform="translate(196.691036, 95.925368)"><g><path d="M 0.96875 -9.015625 C 0.96875 -10.097656 1.15625 -11.160156 1.53125 -12.203125 C 1.914062 -13.242188 2.46875 -14.191406 3.1875 -15.046875 C 3.914062 -15.910156 4.804688 -16.597656 5.859375 -17.109375 C 6.910156 -17.617188 8.101562 -17.875 9.4375 -17.875 C 11.019531 -17.875 12.378906 -17.507812 13.515625 -16.78125 C 14.648438 -16.050781 15.492188 -15.125 16.046875 -14 L 14.265625 -12.84375 C 13.921875 -13.59375 13.472656 -14.1875 12.921875 -14.625 C 12.378906 -15.070312 11.796875 -15.382812 11.171875 -15.5625 C 10.546875 -15.75 9.9375 -15.84375 9.34375 -15.84375 C 8.351562 -15.84375 7.476562 -15.640625 6.71875 -15.234375 C 5.957031 -14.835938 5.316406 -14.304688 4.796875 -13.640625 C 4.285156 -12.972656 3.898438 -12.222656 3.640625 -11.390625 C 3.378906 -10.566406 3.25 -9.738281 3.25 -8.90625 C 3.25 -7.988281 3.40625 -7.101562 3.71875 -6.25 C 4.03125 -5.40625 4.457031 -4.65625 5 -4 C 5.550781 -3.351562 6.203125 -2.835938 6.953125 -2.453125 C 7.703125 -2.066406 8.519531 -1.875 9.40625 -1.875 C 10.03125 -1.875 10.664062 -1.984375 11.3125 -2.203125 C 11.96875 -2.421875 12.578125 -2.757812 13.140625 -3.21875 C 13.710938 -3.675781 14.164062 -4.269531 14.5 -5 L 16.375 -3.984375 C 16 -3.097656 15.425781 -2.34375 14.65625 -1.71875 C 13.894531 -1.101562 13.039062 -0.632812 12.09375 -0.3125 C 11.15625 0 10.226562 0.15625 9.3125 0.15625 C 8.09375 0.15625 6.972656 -0.101562 5.953125 -0.625 C 4.941406 -1.15625 4.0625 -1.859375 3.3125 -2.734375 C 2.570312 -3.617188 1.992188 -4.601562 1.578125 -5.6875 C 1.171875 -6.78125 0.96875 -7.890625 0.96875 -9.015625 Z M 0.96875 -9.015625 "></path></g></g></g><g fill="#002e7c" fill-opacity="1"><g transform="translate(215.734476, 95.925368)"><g><path d="M 14.1875 -2 L 14.1875 0 L 2.125 0 L 2.125 -17.765625 L 13.96875 -17.765625 L 13.96875 -15.765625 L 4.375 -15.765625 L 4.375 -10.015625 L 12.71875 -10.015625 L 12.71875 -8.140625 L 4.375 -8.140625 L 4.375 -2 Z M 14.1875 -2 "></path></g></g></g><g fill="#002e7c" fill-opacity="1"><g transform="translate(232.851063, 95.925368)"><g><path d="M 2.125 0 L 2.125 -17.765625 L 4.375 -17.765625 L 4.375 -2 L 14.296875 -2 L 14.296875 0 Z M 2.125 0 "></path></g></g></g><g fill="#002e7c" fill-opacity="1"><g transform="translate(249.442145, 95.925368)"><g><path d="M 9.34375 0.125 C 8.082031 0.125 6.941406 -0.125 5.921875 -0.625 C 4.910156 -1.125 4.03125 -1.800781 3.28125 -2.65625 C 2.539062 -3.519531 1.96875 -4.488281 1.5625 -5.5625 C 1.164062 -6.644531 0.96875 -7.753906 0.96875 -8.890625 C 0.96875 -10.066406 1.179688 -11.191406 1.609375 -12.265625 C 2.035156 -13.347656 2.628906 -14.3125 3.390625 -15.15625 C 4.148438 -16 5.035156 -16.664062 6.046875 -17.15625 C 7.066406 -17.644531 8.179688 -17.890625 9.390625 -17.890625 C 10.640625 -17.890625 11.769531 -17.628906 12.78125 -17.109375 C 13.800781 -16.597656 14.675781 -15.910156 15.40625 -15.046875 C 16.144531 -14.179688 16.710938 -13.210938 17.109375 -12.140625 C 17.515625 -11.066406 17.71875 -9.972656 17.71875 -8.859375 C 17.71875 -7.671875 17.507812 -6.539062 17.09375 -5.46875 C 16.675781 -4.394531 16.085938 -3.4375 15.328125 -2.59375 C 14.566406 -1.75 13.675781 -1.082031 12.65625 -0.59375 C 11.644531 -0.113281 10.539062 0.125 9.34375 0.125 Z M 3.25 -8.890625 C 3.25 -7.984375 3.394531 -7.109375 3.6875 -6.265625 C 3.976562 -5.421875 4.390625 -4.671875 4.921875 -4.015625 C 5.460938 -3.367188 6.109375 -2.851562 6.859375 -2.46875 C 7.609375 -2.09375 8.441406 -1.90625 9.359375 -1.90625 C 10.304688 -1.90625 11.15625 -2.101562 11.90625 -2.5 C 12.664062 -2.90625 13.304688 -3.441406 13.828125 -4.109375 C 14.359375 -4.773438 14.757812 -5.523438 15.03125 -6.359375 C 15.300781 -7.191406 15.4375 -8.035156 15.4375 -8.890625 C 15.4375 -9.785156 15.289062 -10.648438 15 -11.484375 C 14.707031 -12.316406 14.289062 -13.0625 13.75 -13.71875 C 13.207031 -14.382812 12.566406 -14.90625 11.828125 -15.28125 C 11.085938 -15.65625 10.265625 -15.84375 9.359375 -15.84375 C 8.410156 -15.84375 7.5625 -15.644531 6.8125 -15.25 C 6.0625 -14.863281 5.421875 -14.335938 4.890625 -13.671875 C 4.367188 -13.003906 3.960938 -12.253906 3.671875 -11.421875 C 3.390625 -10.597656 3.25 -9.753906 3.25 -8.890625 Z M 3.25 -8.890625 "></path></g></g></g><g fill="#002e7c" fill-opacity="1"><g transform="translate(270.13717, 95.925368)"><g><path d="M 4.375 -13.609375 L 4.375 0 L 2.125 0 L 2.125 -17.765625 L 4.03125 -17.765625 L 14.890625 -3.875 L 14.890625 -17.75 L 17.140625 -17.75 L 17.140625 0 L 15.09375 0 Z M 4.375 -13.609375 "></path></g></g></g><g fill="#002e7c" fill-opacity="1"><g transform="translate(291.38272, 95.925368)"><g><path d="M 7.53125 -17.765625 L 9.4375 -17.765625 L 16.703125 0 L 14.296875 0 L 12.1875 -5.203125 L 4.734375 -5.203125 L 2.65625 0 L 0.25 0 Z M 11.6875 -6.953125 L 8.484375 -15.171875 L 5.1875 -6.953125 Z M 11.6875 -6.953125 "></path></g></g></g><path stroke-linecap="butt" transform="matrix(0.762274, 0, 0, 0.762274, 7.371476, 7.760616)" fill="none" stroke-linejoin="miter" d="M 394.952841 2.999263 L 3.002439 2.999263 L 3.002439 104.658548 L 163.321561 104.658548 " stroke="#002e7c" stroke-width="6" stroke-opacity="1" stroke-miterlimit="4"></path></g></g></svg> 